<svg
                width="52"
                height="53"
                viewBox="0 0 52 53"
                fill="none"
                xmlns="http://www.w3.org/2000/svg"
            >
                <path
                    d="M41.0208 9.46202L41.4655 6.18356C41.5941 5.1578 40.9466 3.9206 39.9727 3.78519L38.3528 3.37342C37.9196 2.20635 37.2257 1.50963 36.1294 1.5C35.1555 1.5 34.3718 2.08429 33.906 2.90506L32.0374 2.68189C31.0635 2.54648 30.1319 3.56414 30.0034 4.5899L29.5587 7.86836L41.0208 9.46202Z"
                    fill="url(#paint0_linear_129_70)"
                />
                <path
                    d="M36.5741 3.37342C36.5741 3.63208 36.375 3.84177 36.1294 3.84177C35.8838 3.84177 35.6847 3.63208 35.6847 3.37342C35.6847 3.11475 35.8838 2.90506 36.1294 2.90506C36.375 2.90506 36.5741 3.11475 36.5741 3.37342Z"
                    fill="url(#paint1_linear_129_70)"
                />
                <path
                    d="M16.7317 47.7987L43.1829 51.4755C44.6437 51.6786 45.9843 50.5959 46.1771 49.0572L50.9768 10.7529C51.1696 9.21426 50.1416 7.80233 48.6807 7.59926L22.2296 3.92245C20.7687 3.71938 19.4281 4.80209 19.2353 6.34073C18.9276 8.79672 18.642 11.0755 18.3714 13.2354M25.9379 11.9733L43.7692 14.4525M42.8799 19.136L27.7656 17.0346M42.8799 23.8196L31.9302 22.2971M41.9905 28.5031L33.6265 27.3402M41.1012 33.1866L33.8335 32.1762M40.2118 37.8702L32.7851 36.8376M39.3225 42.5537L30.4068 41.3141M18.0819 18.864L18.2933 16.0627M28.0619 31.6424L30.7216 31.865M16.1403 44.5296L16.3517 41.7283M3.67566 29.6298L6.33533 29.8525M32.7851 36.8376C30.3922 43.2934 24.4297 47.867 17.453 47.867C8.36626 47.867 1 40.1085 1 30.5379C1 20.9674 8.36626 13.2088 17.453 13.2088C17.7612 13.2088 18.0674 13.2178 18.3714 13.2354M32.7851 36.8376C33.3289 35.3705 33.6883 33.8061 33.8335 32.1762M33.8335 32.1762C33.8815 31.6369 33.906 31.0904 33.906 30.5379C33.906 29.4455 33.81 28.3766 33.6265 27.3402M33.6265 27.3402C33.3088 25.5467 32.7289 23.8504 31.9302 22.2971M31.9302 22.2971C30.8844 20.2635 29.4637 18.475 27.7656 17.0346M27.7656 17.0346C25.1671 14.8303 21.919 13.441 18.3714 13.2354M41.4655 6.18356L41.0208 9.46202L29.5587 7.86836L30.0034 4.5899C30.1319 3.56414 31.0635 2.54648 32.0374 2.68189L33.906 2.90506C34.3718 2.08429 35.1555 1.5 36.1294 1.5C37.2257 1.50963 37.9196 2.20635 38.3528 3.37342L39.9727 3.78519C40.9466 3.9206 41.5941 5.1578 41.4655 6.18356ZM36.5741 3.37342C36.5741 3.63208 36.375 3.84177 36.1294 3.84177C35.8838 3.84177 35.6847 3.63208 35.6847 3.37342C35.6847 3.11475 35.8838 2.90506 36.1294 2.90506C36.375 2.90506 36.5741 3.11475 36.5741 3.37342ZM12.1169 29.1329L12.5616 29.2977C12.5616 29.2977 15.1394 32.1283 16.7317 33.8164L27.6805 23.981L28.5699 23.8196L16.8963 35.4702L12.1169 29.1329Z"
                    stroke="url(#paint2_linear_129_70)"
                    stroke-width="1.9"
                />
                <defs>
                    <linearGradient
                        id="paint0_linear_129_70"
                        x1="29.3381"
                        y1="1.5"
                        x2="22.6619"
                        y2="51.5"
                        gradientUnits="userSpaceOnUse"
                    >
                        <stop stop-color="#786cd8" />
                        <stop offset="0.799" stop-color="#7A5CB9" />
                        <stop offset="1" stop-color="#7A5CB9" />
                    </linearGradient>
                    <linearGradient
                        id="paint1_linear_129_70"
                        x1="29.3381"
                        y1="1.5"
                        x2="22.6619"
                        y2="51.5"
                        gradientUnits="userSpaceOnUse"
                    >
                        <stop stop-color="#786cd8" />
                        <stop offset="0.799" stop-color="#7A5CB9" />
                        <stop offset="1" stop-color="#7A5CB9" />
                    </linearGradient>
                    <linearGradient
                        id="paint2_linear_129_70"
                        x1="29.3381"
                        y1="1.5"
                        x2="22.6619"
                        y2="51.5"
                        gradientUnits="userSpaceOnUse"
                    >
                        <stop stop-color="#786cd8" />
                        <stop offset="0.799" stop-color="#7A5CB9" />
                        <stop offset="1" stop-color="#7A5CB9" />
                    </linearGradient>
                </defs>
            </svg>