<svg width="24" height="28" viewBox="0 0 24 28" fill="none" xmlns="http://www.w3.org/2000/svg">
<path d="M19.5 22V21H19.4741L19.4483 21.0013L19.5 22ZM5 7C4.44772 7 4 7.44772 4 8C4 8.55228 4.44772 9 5 9V7ZM19 9C19.5523 9 20 8.55228 20 8C20 7.44772 19.5523 7 19 7V9ZM5 12C4.44772 12 4 12.4477 4 13C4 13.5523 4.44772 14 5 14V12ZM19 14C19.5523 14 20 13.5523 20 13C20 12.4477 19.5523 12 19 12V14ZM5 17C4.44772 17 4 17.4477 4 18C4 18.5523 4.44772 19 5 19V17ZM19 19C19.5523 19 20 18.5523 20 18C20 17.4477 19.5523 17 19 17V19ZM17.5 27V28C17.7652 28 18.0196 27.8946 18.2071 27.7071L17.5 27ZM22.5 22L23.2071 22.7071C23.3946 22.5196 23.5 22.2652 23.5 22H22.5ZM3.5 2H20.5V0H3.5V2ZM2.5 25V3H0.5V25H2.5ZM3.5 26C2.94772 26 2.5 25.5523 2.5 25H0.5C0.5 26.6569 1.84315 28 3.5 28V26ZM19.4483 21.0013C17.8806 21.0825 16.3657 22.306 16.503 24.0773L18.497 23.9227C18.468 23.5481 18.8103 23.0371 19.5517 22.9987L19.4483 21.0013ZM20.5 2C21.0523 2 21.5 2.44772 21.5 3H23.5C23.5 1.34315 22.1569 0 20.5 0V2ZM3.5 0C1.84315 0 0.5 1.34315 0.5 3H2.5C2.5 2.44771 2.94772 2 3.5 2V0ZM5 9H19V7H5V9ZM5 14H19V12H5V14ZM5 19H19V17H5V19ZM16.5 24V27H18.5V24H16.5ZM17.5 26H3.5V28H17.5V26ZM21.5 3V22H23.5V3H21.5ZM22.5 21H19.5V23H22.5V21ZM21.7929 21.2929L16.7929 26.2929L18.2071 27.7071L23.2071 22.7071L21.7929 21.2929ZM17.8714 24.9285L22.8714 22.9285L22.1286 21.0715L17.1286 23.0715L17.8714 24.9285ZM18.5715 21.6286L16.5715 26.6286L18.4285 27.3714L20.4285 22.3714L18.5715 21.6286Z" fill="black"/>
</svg>
