<svg width="25" height="25" viewBox="0 0 25 25" fill="none" xmlns="http://www.w3.org/2000/svg">
<path d="M12.5 25C19.4037 25 25 19.4037 25 12.5C25 11.9213 24.1325 11.825 23.8337 12.3213C23.1966 13.3767 22.3275 14.2733 21.2925 14.9431C20.2575 15.6129 19.0836 16.0384 17.8598 16.1874C16.636 16.3363 15.3943 16.2048 14.2288 15.8028C13.0633 15.4009 12.0046 14.7389 11.1329 13.8671C10.2611 12.9954 9.59915 11.9367 9.19715 10.7712C8.79516 9.60571 8.66366 8.36404 8.81262 7.14021C8.96158 5.91638 9.38709 4.7425 10.0569 3.70748C10.7267 2.67246 11.6233 1.80344 12.6787 1.16625C13.175 0.86625 13.0787 0 12.5 0C5.59625 0 0 5.59625 0 12.5C0 19.4037 5.59625 25 12.5 25Z" fill="#A040CE"/>
</svg>
