<svg width="30" height="30" viewBox="0 0 30 30" fill="none" xmlns="http://www.w3.org/2000/svg">
<path d="M14 4V1C14 0.734784 14.1054 0.48043 14.2929 0.292893C14.4804 0.105357 14.7348 0 15 0C15.2652 0 15.5196 0.105357 15.7071 0.292893C15.8946 0.48043 16 0.734784 16 1V4C16 4.26522 15.8946 4.51957 15.7071 4.70711C15.5196 4.89464 15.2652 5 15 5C14.7348 5 14.4804 4.89464 14.2929 4.70711C14.1054 4.51957 14 4.26522 14 4ZM15 7C13.4177 7 11.871 7.46919 10.5554 8.34824C9.23984 9.22729 8.21447 10.4767 7.60896 11.9385C7.00346 13.4003 6.84504 15.0089 7.15372 16.5607C7.4624 18.1126 8.22433 19.538 9.34315 20.6569C10.462 21.7757 11.8874 22.5376 13.4393 22.8463C14.9911 23.155 16.5997 22.9965 18.0615 22.391C19.5233 21.7855 20.7727 20.7602 21.6518 19.4446C22.5308 18.129 23 16.5823 23 15C22.9977 12.879 22.1541 10.8455 20.6543 9.3457C19.1545 7.84591 17.121 7.00232 15 7ZM6.2925 7.7075C6.48014 7.89514 6.73464 8.00056 7 8.00056C7.26536 8.00056 7.51986 7.89514 7.7075 7.7075C7.89514 7.51986 8.00056 7.26536 8.00056 7C8.00056 6.73464 7.89514 6.48014 7.7075 6.2925L5.7075 4.2925C5.51986 4.10486 5.26536 3.99944 5 3.99944C4.73464 3.99944 4.48014 4.10486 4.2925 4.2925C4.10486 4.48014 3.99944 4.73464 3.99944 5C3.99944 5.26536 4.10486 5.51986 4.2925 5.7075L6.2925 7.7075ZM6.2925 22.2925L4.2925 24.2925C4.10486 24.4801 3.99944 24.7346 3.99944 25C3.99944 25.2654 4.10486 25.5199 4.2925 25.7075C4.48014 25.8951 4.73464 26.0006 5 26.0006C5.26536 26.0006 5.51986 25.8951 5.7075 25.7075L7.7075 23.7075C7.80041 23.6146 7.87411 23.5043 7.92439 23.3829C7.97468 23.2615 8.00056 23.1314 8.00056 23C8.00056 22.8686 7.97468 22.7385 7.92439 22.6171C7.87411 22.4957 7.80041 22.3854 7.7075 22.2925C7.61459 22.1996 7.50429 22.1259 7.3829 22.0756C7.2615 22.0253 7.13139 21.9994 7 21.9994C6.86861 21.9994 6.7385 22.0253 6.6171 22.0756C6.49571 22.1259 6.38541 22.1996 6.2925 22.2925ZM23 8C23.1314 8.0001 23.2615 7.97432 23.3829 7.92414C23.5042 7.87395 23.6146 7.80033 23.7075 7.7075L25.7075 5.7075C25.8951 5.51986 26.0006 5.26536 26.0006 5C26.0006 4.73464 25.8951 4.48014 25.7075 4.2925C25.5199 4.10486 25.2654 3.99944 25 3.99944C24.7346 3.99944 24.4801 4.10486 24.2925 4.2925L22.2925 6.2925C22.1525 6.43236 22.0571 6.61061 22.0185 6.80469C21.9798 6.99878 21.9996 7.19997 22.0754 7.38279C22.1511 7.56561 22.2794 7.72185 22.444 7.83172C22.6086 7.94159 22.8021 8.00016 23 8ZM23.7075 22.2925C23.5199 22.1049 23.2654 21.9994 23 21.9994C22.7346 21.9994 22.4801 22.1049 22.2925 22.2925C22.1049 22.4801 21.9994 22.7346 21.9994 23C21.9994 23.2654 22.1049 23.5199 22.2925 23.7075L24.2925 25.7075C24.3854 25.8004 24.4957 25.8741 24.6171 25.9244C24.7385 25.9747 24.8686 26.0006 25 26.0006C25.1314 26.0006 25.2615 25.9747 25.3829 25.9244C25.5043 25.8741 25.6146 25.8004 25.7075 25.7075C25.8004 25.6146 25.8741 25.5043 25.9244 25.3829C25.9747 25.2615 26.0006 25.1314 26.0006 25C26.0006 24.8686 25.9747 24.7385 25.9244 24.6171C25.8741 24.4957 25.8004 24.3854 25.7075 24.2925L23.7075 22.2925ZM5 15C5 14.7348 4.89464 14.4804 4.70711 14.2929C4.51957 14.1054 4.26522 14 4 14H1C0.734784 14 0.48043 14.1054 0.292893 14.2929C0.105357 14.4804 0 14.7348 0 15C0 15.2652 0.105357 15.5196 0.292893 15.7071C0.48043 15.8946 0.734784 16 1 16H4C4.26522 16 4.51957 15.8946 4.70711 15.7071C4.89464 15.5196 5 15.2652 5 15ZM15 25C14.7348 25 14.4804 25.1054 14.2929 25.2929C14.1054 25.4804 14 25.7348 14 26V29C14 29.2652 14.1054 29.5196 14.2929 29.7071C14.4804 29.8946 14.7348 30 15 30C15.2652 30 15.5196 29.8946 15.7071 29.7071C15.8946 29.5196 16 29.2652 16 29V26C16 25.7348 15.8946 25.4804 15.7071 25.2929C15.5196 25.1054 15.2652 25 15 25ZM29 14H26C25.7348 14 25.4804 14.1054 25.2929 14.2929C25.1054 14.4804 25 14.7348 25 15C25 15.2652 25.1054 15.5196 25.2929 15.7071C25.4804 15.8946 25.7348 16 26 16H29C29.2652 16 29.5196 15.8946 29.7071 15.7071C29.8946 15.5196 30 15.2652 30 15C30 14.7348 29.8946 14.4804 29.7071 14.2929C29.5196 14.1054 29.2652 14 29 14Z" fill="#A040CE"/>
</svg>
