 <svg  version="1.0" xmlns="http://www.w3.org/2000/svg"  width="900.000000pt" height="720.000000pt" viewBox="0 0 900.000000 720.000000"  preserveAspectRatio="xMidYMid meet"> 
  <g transform="translate(0.000000,720.000000) scale(0.100000,-0.100000)" fill="#000000" stroke="none">
   <path d="M1835 6669 c-22 -5 -62 -13 -90 -18 -91 -17 -225 -68 -320 -123 -120 -70 -298 -245 -319 -315 -4 -13 -11 -23 -16 -23 -9 0 -70 -119 -70 -137 0 -7 -6 -27 -14 -45 -8 -18 -22 -71 -31 -118 -9 -47 -21 -102 -26 -122 -6 -23 -12 -807 -16 -2036 -5 -1589 -4 -2009 6 -2048 7 -27 17 -71 22 -99 17 -101 26 -141 46 -201 27 -80 46 -114 144 -260 32 -48 183 -189 236 -221 54 -33 164 -85 263 -124 l85 -34 2100 -3 c2044 -3 2248 -1 2303 27 46 23 95 41 112 41 10 0 21 4 24 9 3 5 17 11 30 15 13 3 52 24 87 46 35 22 69 43 75 45 20 10 170 160 206 205 19 25 43 61 53 80 10 19 28 49 40 65 62 85 127 387 104 481 -20 78 -36 84 -223 84 -111 -1 -166 -4 -177 -13 -24 -18 -49 -72 -49 -105 0 -16 -9 -58 -20 -92 -11 -34 -20 -67 -20 -72 0 -24 -54 -115 -97 -162 -52 -58 -164 -129 -232 -146 -25 -6 -62 -15 -82 -21 -22 -5 -821 -9 -2042 -9 -2223 0 -2067 -5 -2214 66 -132 63 -212 161 -269 327 l-23 67 -1 2043 -2 2042 21 55 c81 206 148 277 339 357 l67 28 2065 0 2065 0 73 -27 c40 -15 84 -36 99 -47 14 -12 30 -21 35 -21 18 0 101 -85 139 -143 44 -66 69 -140 69 -205 0 -64 29 -137 72 -179 33 -32 43 -36 106 -41 39 -2 105 -1 147 3 98 9 131 34 149 114 15 66 1 203 -33 326 -25 89 -114 255 -161 300 -16 16 -30 34 -30 40 0 18 -165 160 -235 202 -42 25 -166 83 -179 83 -7 0 -34 9 -59 20 -114 50 -92 50 -2267 48 -1114 0 -2043 -5 -2065 -9z"/> 
   <path d="M3822 5197 c-30 -6 -49 -18 -75 -50 -55 -68 -57 -75 -57 -234 0 -122 3 -153 17 -173 33 -50 69 -83 113 -103 44 -20 60 -21 557 -21 l512 -1 27 -26 c36 -36 40 -71 34 -312 l-5 -209 -28 -24 c-15 -13 -45 -28 -67 -34 -28 -7 -363 -10 -1070 -9 l-1029 1 -42 -29 c-23 -15 -56 -45 -73 -66 l-31 -39 -3 -154 c-3 -150 -3 -156 22 -198 26 -44 70 -82 119 -104 22 -9 459 -12 1960 -12 1843 0 1933 -1 1956 -18 54 -40 61 -71 61 -271 0 -203 -8 -245 -52 -288 l-29 -28 -807 -5 c-922 -6 -841 3 -910 -100 l-37 -55 0 -142 0 -141 40 -59 c24 -35 56 -67 80 -80 l40 -21 1238 -1 c1236 -1 1238 -1 1279 20 48 25 83 60 110 113 17 34 19 55 16 180 -3 138 -4 144 -32 184 -15 23 -45 54 -65 69 l-36 28 -245 3 c-135 1 -264 5 -286 7 -48 7 -74 31 -98 95 -16 39 -17 68 -11 232 6 202 13 231 63 264 25 17 64 19 547 24 490 5 522 6 551 25 39 24 69 67 95 136 16 44 19 72 16 149 -4 82 -8 103 -35 155 -29 58 -41 69 -109 107 -31 17 -106 18 -1401 18 l-1368 0 -44 23 c-75 37 -79 54 -82 283 -2 216 1 232 57 284 l27 25 1146 5 c852 4 1154 8 1173 17 42 18 98 73 120 114 16 32 19 59 19 156 -1 129 -11 169 -55 227 -59 78 127 71 -1932 71 -1012 0 -1859 -4 -1881 -8z"/> 
  </g> 
</svg> 