<svg width="32" height="32" viewBox="0 0 32 32" fill="none" xmlns="http://www.w3.org/2000/svg">
<path d="M22.1765 17.4545C22.7288 17.4545 23.1765 17.0068 23.1765 16.4545C23.1765 15.9023 22.7288 15.4545 22.1765 15.4545V17.4545ZM0.292893 15.7474C-0.0976311 16.138 -0.0976311 16.7711 0.292893 17.1617L6.65685 23.5256C7.04738 23.9161 7.68054 23.9161 8.07107 23.5256C8.46159 23.1351 8.46159 22.5019 8.07107 22.1114L2.41421 16.4545L8.07107 10.7977C8.46159 10.4072 8.46159 9.774 8.07107 9.38348C7.68054 8.99295 7.04738 8.99295 6.65685 9.38348L0.292893 15.7474ZM9.70588 11.9091C9.70588 12.4614 10.1536 12.9091 10.7059 12.9091C11.2582 12.9091 11.7059 12.4614 11.7059 11.9091H9.70588ZM11.7059 21C11.7059 20.4477 11.2582 20 10.7059 20C10.1536 20 9.70588 20.4477 9.70588 21H11.7059ZM13.3529 2H28.3529V0H13.3529V2ZM30 3.72727V28.2727H32V3.72727H30ZM28.3529 30H13.3529V32H28.3529V30ZM13.3529 30C12.4712 30 11.7059 29.255 11.7059 28.2727H9.70588C9.70588 30.3029 11.3108 32 13.3529 32V30ZM30 28.2727C30 29.255 29.2347 30 28.3529 30V32C30.3951 32 32 30.3029 32 28.2727H30ZM28.3529 2C29.2347 2 30 2.74498 30 3.72727H32C32 1.69711 30.3951 0 28.3529 0V2ZM13.3529 0C11.3108 0 9.70588 1.69711 9.70588 3.72727H11.7059C11.7059 2.74498 12.4712 2 13.3529 2V0ZM22.1765 15.4545H10.7059V17.4545H22.1765V15.4545ZM10.7059 15.4545H1V17.4545H10.7059V15.4545ZM11.7059 11.9091V3.72727H9.70588V11.9091H11.7059ZM11.7059 28.2727V21H9.70588V28.2727H11.7059Z" fill="#FF375F"/>
</svg>
